<?xml version="1.0" encoding="UTF-8" standalone="no"?><svg xmlns="http://www.w3.org/2000/svg" xmlns:xlink="http://www.w3.org/1999/xlink" contentStyleType="text/css" height="408px" preserveAspectRatio="none" style="width:661px;height:408px;background:#FFFFFF;" version="1.1" viewBox="0 0 661 408" width="661px" zoomAndPan="magnify"><defs/><g><rect fill="#FFFFFF" height="296.9297" style="stroke:#181818;stroke-width:1.0;" width="10" x="213" y="67.4297"/><rect fill="#FFFFFF" height="143.3984" style="stroke:#181818;stroke-width:1.0;" width="10" x="218" y="211.9609"/><rect fill="#FFFFFF" height="14" style="stroke:#181818;stroke-width:1.0;" width="10" x="383.5" y="96.5625"/><rect fill="#FFFFFF" height="14" style="stroke:#181818;stroke-width:1.0;" width="10" x="383.5" y="168.8281"/><rect fill="#FFFFFF" height="14" style="stroke:#181818;stroke-width:1.0;" width="10" x="383.5" y="241.0938"/><rect fill="#FFFFFF" height="224.6641" style="stroke:#181818;stroke-width:1.0;" width="10" x="515.5" y="139.6953"/><rect fill="#FFFFFF" height="14" style="stroke:#181818;stroke-width:1.0;" width="10" x="619" y="284.2266"/><rect fill="#FFFFFF" height="14" style="stroke:#181818;stroke-width:1.0;" width="10" x="619" y="327.3594"/><line style="stroke:#181818;stroke-width:0.5;stroke-dasharray:5.0,5.0;" x1="30" x2="30" y1="36.2969" y2="373.3594"/><line style="stroke:#181818;stroke-width:0.5;stroke-dasharray:5.0,5.0;" x1="217.5" x2="217.5" y1="36.2969" y2="373.3594"/><line style="stroke:#181818;stroke-width:0.5;stroke-dasharray:5.0,5.0;" x1="388.5" x2="388.5" y1="36.2969" y2="373.3594"/><line style="stroke:#181818;stroke-width:0.5;stroke-dasharray:5.0,5.0;" x1="520.5" x2="520.5" y1="36.2969" y2="373.3594"/><line style="stroke:#181818;stroke-width:0.5;stroke-dasharray:5.0,5.0;" x1="623.5" x2="623.5" y1="36.2969" y2="373.3594"/><rect fill="#E2E2F0" height="30.2969" rx="2.5" ry="2.5" style="stroke:#181818;stroke-width:0.5;" width="50" x="5" y="5"/><text fill="#000000" font-family="sans-serif" font-size="14" lengthAdjust="spacing" textLength="36" x="12" y="24.9951">Actor</text><rect fill="#E2E2F0" height="30.2969" rx="2.5" ry="2.5" style="stroke:#181818;stroke-width:0.5;" width="50" x="5" y="372.3594"/><text fill="#000000" font-family="sans-serif" font-size="14" lengthAdjust="spacing" textLength="36" x="12" y="392.3545">Actor</text><rect fill="#E2E2F0" height="30.2969" rx="2.5" ry="2.5" style="stroke:#181818;stroke-width:0.5;" width="201" x="117.5" y="5"/><text fill="#000000" font-family="sans-serif" font-size="14" lengthAdjust="spacing" textLength="187" x="124.5" y="24.9951">CustomAuthenticationFilter</text><rect fill="#E2E2F0" height="30.2969" rx="2.5" ry="2.5" style="stroke:#181818;stroke-width:0.5;" width="201" x="117.5" y="372.3594"/><text fill="#000000" font-family="sans-serif" font-size="14" lengthAdjust="spacing" textLength="187" x="124.5" y="392.3545">CustomAuthenticationFilter</text><rect fill="#E2E2F0" height="30.2969" rx="2.5" ry="2.5" style="stroke:#181818;stroke-width:0.5;" width="120" x="328.5" y="5"/><text fill="#000000" font-family="sans-serif" font-size="14" lengthAdjust="spacing" textLength="106" x="335.5" y="24.9951">UserRepository</text><rect fill="#E2E2F0" height="30.2969" rx="2.5" ry="2.5" style="stroke:#181818;stroke-width:0.5;" width="120" x="328.5" y="372.3594"/><text fill="#000000" font-family="sans-serif" font-size="14" lengthAdjust="spacing" textLength="106" x="335.5" y="392.3545">UserRepository</text><rect fill="#E2E2F0" height="30.2969" rx="2.5" ry="2.5" style="stroke:#181818;stroke-width:0.5;" width="124" x="458.5" y="5"/><text fill="#000000" font-family="sans-serif" font-size="14" lengthAdjust="spacing" textLength="110" x="465.5" y="24.9951">UserServiceImpl</text><rect fill="#E2E2F0" height="30.2969" rx="2.5" ry="2.5" style="stroke:#181818;stroke-width:0.5;" width="124" x="458.5" y="372.3594"/><text fill="#000000" font-family="sans-serif" font-size="14" lengthAdjust="spacing" textLength="110" x="465.5" y="392.3545">UserServiceImpl</text><rect fill="#E2E2F0" height="30.2969" rx="2.5" ry="2.5" style="stroke:#181818;stroke-width:0.5;" width="63" x="592.5" y="5"/><text fill="#000000" font-family="sans-serif" font-size="14" lengthAdjust="spacing" textLength="49" x="599.5" y="24.9951">Utilities</text><rect fill="#E2E2F0" height="30.2969" rx="2.5" ry="2.5" style="stroke:#181818;stroke-width:0.5;" width="63" x="592.5" y="372.3594"/><text fill="#000000" font-family="sans-serif" font-size="14" lengthAdjust="spacing" textLength="49" x="599.5" y="392.3545">Utilities</text><rect fill="#FFFFFF" height="296.9297" style="stroke:#181818;stroke-width:1.0;" width="10" x="213" y="67.4297"/><rect fill="#FFFFFF" height="143.3984" style="stroke:#181818;stroke-width:1.0;" width="10" x="218" y="211.9609"/><rect fill="#FFFFFF" height="14" style="stroke:#181818;stroke-width:1.0;" width="10" x="383.5" y="96.5625"/><rect fill="#FFFFFF" height="14" style="stroke:#181818;stroke-width:1.0;" width="10" x="383.5" y="168.8281"/><rect fill="#FFFFFF" height="14" style="stroke:#181818;stroke-width:1.0;" width="10" x="383.5" y="241.0938"/><rect fill="#FFFFFF" height="224.6641" style="stroke:#181818;stroke-width:1.0;" width="10" x="515.5" y="139.6953"/><rect fill="#FFFFFF" height="14" style="stroke:#181818;stroke-width:1.0;" width="10" x="619" y="284.2266"/><rect fill="#FFFFFF" height="14" style="stroke:#181818;stroke-width:1.0;" width="10" x="619" y="327.3594"/><polygon fill="#181818" points="201,63.4297,211,67.4297,201,71.4297,205,67.4297" style="stroke:#181818;stroke-width:1.0;"/><line style="stroke:#181818;stroke-width:1.0;" x1="30" x2="207" y1="67.4297" y2="67.4297"/><text fill="#000000" font-family="sans-serif" font-size="13" lengthAdjust="spacing" textLength="145" x="37" y="62.3638">attemptAuthentication</text><polygon fill="#181818" points="371.5,92.5625,381.5,96.5625,371.5,100.5625,375.5,96.5625" style="stroke:#181818;stroke-width:1.0;"/><line style="stroke:#181818;stroke-width:1.0;" x1="223" x2="377.5" y1="96.5625" y2="96.5625"/><text fill="#000000" font-family="sans-serif" font-size="13" lengthAdjust="spacing" textLength="74" x="230" y="91.4966">findByEmail</text><polygon fill="#181818" points="234,106.5625,224,110.5625,234,114.5625,230,110.5625" style="stroke:#181818;stroke-width:1.0;"/><line style="stroke:#181818;stroke-width:1.0;stroke-dasharray:2.0,2.0;" x1="228" x2="387.5" y1="110.5625" y2="110.5625"/><polygon fill="#181818" points="503.5,135.6953,513.5,139.6953,503.5,143.6953,507.5,139.6953" style="stroke:#181818;stroke-width:1.0;"/><line style="stroke:#181818;stroke-width:1.0;" x1="30" x2="509.5" y1="139.6953" y2="139.6953"/><text fill="#000000" font-family="sans-serif" font-size="13" lengthAdjust="spacing" textLength="140" x="37" y="134.6294">loadUserByUsername</text><polygon fill="#181818" points="404.5,164.8281,394.5,168.8281,404.5,172.8281,400.5,168.8281" style="stroke:#181818;stroke-width:1.0;"/><line style="stroke:#181818;stroke-width:1.0;" x1="398.5" x2="514.5" y1="168.8281" y2="168.8281"/><text fill="#000000" font-family="sans-serif" font-size="13" lengthAdjust="spacing" textLength="74" x="410.5" y="163.7622">findByEmail</text><polygon fill="#181818" points="503.5,178.8281,513.5,182.8281,503.5,186.8281,507.5,182.8281" style="stroke:#181818;stroke-width:1.0;"/><line style="stroke:#181818;stroke-width:1.0;stroke-dasharray:2.0,2.0;" x1="388.5" x2="509.5" y1="182.8281" y2="182.8281"/><polygon fill="#181818" points="206,207.9609,216,211.9609,206,215.9609,210,211.9609" style="stroke:#181818;stroke-width:1.0;"/><line style="stroke:#181818;stroke-width:1.0;" x1="30" x2="212" y1="211.9609" y2="211.9609"/><text fill="#000000" font-family="sans-serif" font-size="13" lengthAdjust="spacing" textLength="159" x="37" y="206.895">successfulAuthentication</text><polygon fill="#181818" points="371.5,237.0938,381.5,241.0938,371.5,245.0938,375.5,241.0938" style="stroke:#181818;stroke-width:1.0;"/><line style="stroke:#181818;stroke-width:1.0;" x1="228" x2="377.5" y1="241.0938" y2="241.0938"/><text fill="#000000" font-family="sans-serif" font-size="13" lengthAdjust="spacing" textLength="74" x="235" y="236.0278">findByEmail</text><polygon fill="#181818" points="239,251.0938,229,255.0938,239,259.0938,235,255.0938" style="stroke:#181818;stroke-width:1.0;"/><line style="stroke:#181818;stroke-width:1.0;stroke-dasharray:2.0,2.0;" x1="233" x2="387.5" y1="255.0938" y2="255.0938"/><polygon fill="#181818" points="607,280.2266,617,284.2266,607,288.2266,611,284.2266" style="stroke:#181818;stroke-width:1.0;"/><line style="stroke:#181818;stroke-width:1.0;" x1="228" x2="613" y1="284.2266" y2="284.2266"/><text fill="#000000" font-family="sans-serif" font-size="13" lengthAdjust="spacing" textLength="96" x="235" y="279.1606">createJwtToken</text><polygon fill="#181818" points="239,294.2266,229,298.2266,239,302.2266,235,298.2266" style="stroke:#181818;stroke-width:1.0;"/><line style="stroke:#181818;stroke-width:1.0;stroke-dasharray:2.0,2.0;" x1="233" x2="623" y1="298.2266" y2="298.2266"/><polygon fill="#181818" points="607,323.3594,617,327.3594,607,331.3594,611,327.3594" style="stroke:#181818;stroke-width:1.0;"/><line style="stroke:#181818;stroke-width:1.0;" x1="228" x2="613" y1="327.3594" y2="327.3594"/><text fill="#000000" font-family="sans-serif" font-size="13" lengthAdjust="spacing" textLength="96" x="235" y="322.2935">createJwtToken</text><polygon fill="#181818" points="239,337.3594,229,341.3594,239,345.3594,235,341.3594" style="stroke:#181818;stroke-width:1.0;"/><line style="stroke:#181818;stroke-width:1.0;stroke-dasharray:2.0,2.0;" x1="233" x2="623" y1="341.3594" y2="341.3594"/><polygon fill="#181818" points="41,351.3594,31,355.3594,41,359.3594,37,355.3594" style="stroke:#181818;stroke-width:1.0;"/><line style="stroke:#181818;stroke-width:1.0;stroke-dasharray:2.0,2.0;" x1="35" x2="212" y1="355.3594" y2="355.3594"/><!--MD5=[446f9a216fbd59493bf851a45b9c2617]
@startuml
participant Actor
Actor -> CustomAuthenticationFilter : attemptAuthentication
activate CustomAuthenticationFilter
CustomAuthenticationFilter -> UserRepository : findByEmail
activate UserRepository
UserRepository - -> CustomAuthenticationFilter
deactivate UserRepository

Actor -> UserServiceImpl : loadUserByUsername
activate UserServiceImpl
UserServiceImpl -> UserRepository : findByEmail
activate UserRepository
UserRepository - -> UserServiceImpl
deactivate UserRepository

Actor -> CustomAuthenticationFilter : successfulAuthentication
activate CustomAuthenticationFilter
CustomAuthenticationFilter -> UserRepository : findByEmail
activate UserRepository
UserRepository - -> CustomAuthenticationFilter
deactivate UserRepository
CustomAuthenticationFilter -> Utilities : createJwtToken
activate Utilities
Utilities - -> CustomAuthenticationFilter
deactivate Utilities
CustomAuthenticationFilter -> Utilities : createJwtToken
activate Utilities
Utilities - -> CustomAuthenticationFilter
deactivate Utilities
return
@enduml

PlantUML version 1.2022.7(Mon Aug 22 17:01:30 UTC 2022)
(GPL source distribution)
Java Runtime: OpenJDK Runtime Environment
JVM: OpenJDK 64-Bit Server VM
Default Encoding: UTF-8
Language: en
Country: null
--></g></svg>