<?xml version="1.0" encoding="UTF-8" standalone="no"?><svg xmlns="http://www.w3.org/2000/svg" xmlns:xlink="http://www.w3.org/1999/xlink" contentStyleType="text/css" height="419px" preserveAspectRatio="none" style="width:662px;height:419px;background:#FFFFFF;" version="1.1" viewBox="0 0 662 419" width="662px" zoomAndPan="magnify"><defs/><g><rect fill="#FFFFFF" height="298.7969" style="stroke:#181818;stroke-width:1.0;" width="10" x="132" y="67.4297"/><rect fill="#FFFFFF" height="255.6641" style="stroke:#181818;stroke-width:1.0;" width="10" x="244" y="96.5625"/><rect fill="#FFFFFF" height="212.5313" style="stroke:#181818;stroke-width:1.0;" width="10" x="364" y="125.6953"/><rect fill="#FFFFFF" height="68.1328" style="stroke:#181818;stroke-width:1.0;" width="10" x="369" y="205.9609"/><rect fill="#FFFFFF" height="14" style="stroke:#181818;stroke-width:1.0;" width="10" x="490" y="154.8281"/><rect fill="#FFFFFF" height="14" style="stroke:#181818;stroke-width:1.0;" width="10" x="490" y="310.2266"/><rect fill="#FFFFFF" height="14" style="stroke:#181818;stroke-width:1.0;" width="10" x="591.5" y="240.0938"/><line style="stroke:#181818;stroke-width:0.5;stroke-dasharray:5.0,5.0;" x1="30" x2="30" y1="36.2969" y2="384.2266"/><line style="stroke:#181818;stroke-width:0.5;stroke-dasharray:5.0,5.0;" x1="136.5" x2="136.5" y1="36.2969" y2="384.2266"/><line style="stroke:#181818;stroke-width:0.5;stroke-dasharray:5.0,5.0;" x1="249" x2="249" y1="36.2969" y2="384.2266"/><line style="stroke:#181818;stroke-width:0.5;stroke-dasharray:5.0,5.0;" x1="369" x2="369" y1="36.2969" y2="384.2266"/><line style="stroke:#181818;stroke-width:0.5;stroke-dasharray:5.0,5.0;" x1="494.5" x2="494.5" y1="36.2969" y2="384.2266"/><line style="stroke:#181818;stroke-width:0.5;stroke-dasharray:5.0,5.0;" x1="596.5" x2="596.5" y1="36.2969" y2="384.2266"/><rect fill="#E2E2F0" height="30.2969" rx="2.5" ry="2.5" style="stroke:#181818;stroke-width:0.5;" width="50" x="5" y="5"/><text fill="#000000" font-family="sans-serif" font-size="14" lengthAdjust="spacing" textLength="36" x="12" y="24.9951">Actor</text><rect fill="#E2E2F0" height="30.2969" rx="2.5" ry="2.5" style="stroke:#181818;stroke-width:0.5;" width="50" x="5" y="383.2266"/><text fill="#000000" font-family="sans-serif" font-size="14" lengthAdjust="spacing" textLength="36" x="12" y="403.2217">Actor</text><rect fill="#E2E2F0" height="30.2969" rx="2.5" ry="2.5" style="stroke:#181818;stroke-width:0.5;" width="81" x="96.5" y="5"/><text fill="#000000" font-family="sans-serif" font-size="14" lengthAdjust="spacing" textLength="67" x="103.5" y="24.9951">Controller</text><rect fill="#E2E2F0" height="30.2969" rx="2.5" ry="2.5" style="stroke:#181818;stroke-width:0.5;" width="81" x="96.5" y="383.2266"/><text fill="#000000" font-family="sans-serif" font-size="14" lengthAdjust="spacing" textLength="67" x="103.5" y="403.2217">Controller</text><rect fill="#E2E2F0" height="30.2969" rx="2.5" ry="2.5" style="stroke:#181818;stroke-width:0.5;" width="96" x="201" y="5"/><text fill="#000000" font-family="sans-serif" font-size="14" lengthAdjust="spacing" textLength="82" x="208" y="24.9951">UserService</text><rect fill="#E2E2F0" height="30.2969" rx="2.5" ry="2.5" style="stroke:#181818;stroke-width:0.5;" width="96" x="201" y="383.2266"/><text fill="#000000" font-family="sans-serif" font-size="14" lengthAdjust="spacing" textLength="82" x="208" y="403.2217">UserService</text><rect fill="#E2E2F0" height="30.2969" rx="2.5" ry="2.5" style="stroke:#181818;stroke-width:0.5;" width="124" x="307" y="5"/><text fill="#000000" font-family="sans-serif" font-size="14" lengthAdjust="spacing" textLength="110" x="314" y="24.9951">UserServiceImpl</text><rect fill="#E2E2F0" height="30.2969" rx="2.5" ry="2.5" style="stroke:#181818;stroke-width:0.5;" width="124" x="307" y="383.2266"/><text fill="#000000" font-family="sans-serif" font-size="14" lengthAdjust="spacing" textLength="110" x="314" y="403.2217">UserServiceImpl</text><rect fill="#E2E2F0" height="30.2969" rx="2.5" ry="2.5" style="stroke:#181818;stroke-width:0.5;" width="63" x="463.5" y="5"/><text fill="#000000" font-family="sans-serif" font-size="14" lengthAdjust="spacing" textLength="49" x="470.5" y="24.9951">Utilities</text><rect fill="#E2E2F0" height="30.2969" rx="2.5" ry="2.5" style="stroke:#181818;stroke-width:0.5;" width="63" x="463.5" y="383.2266"/><text fill="#000000" font-family="sans-serif" font-size="14" lengthAdjust="spacing" textLength="49" x="470.5" y="403.2217">Utilities</text><rect fill="#E2E2F0" height="30.2969" rx="2.5" ry="2.5" style="stroke:#181818;stroke-width:0.5;" width="120" x="536.5" y="5"/><text fill="#000000" font-family="sans-serif" font-size="14" lengthAdjust="spacing" textLength="106" x="543.5" y="24.9951">UserRepository</text><rect fill="#E2E2F0" height="30.2969" rx="2.5" ry="2.5" style="stroke:#181818;stroke-width:0.5;" width="120" x="536.5" y="383.2266"/><text fill="#000000" font-family="sans-serif" font-size="14" lengthAdjust="spacing" textLength="106" x="543.5" y="403.2217">UserRepository</text><rect fill="#FFFFFF" height="298.7969" style="stroke:#181818;stroke-width:1.0;" width="10" x="132" y="67.4297"/><rect fill="#FFFFFF" height="255.6641" style="stroke:#181818;stroke-width:1.0;" width="10" x="244" y="96.5625"/><rect fill="#FFFFFF" height="212.5313" style="stroke:#181818;stroke-width:1.0;" width="10" x="364" y="125.6953"/><rect fill="#FFFFFF" height="68.1328" style="stroke:#181818;stroke-width:1.0;" width="10" x="369" y="205.9609"/><rect fill="#FFFFFF" height="14" style="stroke:#181818;stroke-width:1.0;" width="10" x="490" y="154.8281"/><rect fill="#FFFFFF" height="14" style="stroke:#181818;stroke-width:1.0;" width="10" x="490" y="310.2266"/><rect fill="#FFFFFF" height="14" style="stroke:#181818;stroke-width:1.0;" width="10" x="591.5" y="240.0938"/><polygon fill="#181818" points="120,63.4297,130,67.4297,120,71.4297,124,67.4297" style="stroke:#181818;stroke-width:1.0;"/><line style="stroke:#181818;stroke-width:1.0;" x1="30" x2="126" y1="67.4297" y2="67.4297"/><text fill="#000000" font-family="sans-serif" font-size="13" lengthAdjust="spacing" textLength="83" x="37" y="62.3638">refreshToken</text><polygon fill="#181818" points="232,92.5625,242,96.5625,232,100.5625,236,96.5625" style="stroke:#181818;stroke-width:1.0;"/><line style="stroke:#181818;stroke-width:1.0;" x1="142" x2="238" y1="96.5625" y2="96.5625"/><text fill="#000000" font-family="sans-serif" font-size="13" lengthAdjust="spacing" textLength="83" x="149" y="91.4966">refreshToken</text><polygon fill="#181818" points="352,121.6953,362,125.6953,352,129.6953,356,125.6953" style="stroke:#181818;stroke-width:1.0;"/><line style="stroke:#181818;stroke-width:1.0;" x1="254" x2="358" y1="125.6953" y2="125.6953"/><text fill="#000000" font-family="sans-serif" font-size="13" lengthAdjust="spacing" textLength="83" x="261" y="120.6294">refreshToken</text><polygon fill="#181818" points="478,150.8281,488,154.8281,478,158.8281,482,154.8281" style="stroke:#181818;stroke-width:1.0;"/><line style="stroke:#181818;stroke-width:1.0;" x1="374" x2="484" y1="154.8281" y2="154.8281"/><text fill="#000000" font-family="sans-serif" font-size="13" lengthAdjust="spacing" textLength="85" x="381" y="149.7622">decodeToken</text><polygon fill="#181818" points="385,164.8281,375,168.8281,385,172.8281,381,168.8281" style="stroke:#181818;stroke-width:1.0;"/><line style="stroke:#181818;stroke-width:1.0;stroke-dasharray:2.0,2.0;" x1="379" x2="494" y1="168.8281" y2="168.8281"/><line style="stroke:#181818;stroke-width:1.0;" x1="374" x2="421" y1="192.9609" y2="192.9609"/><line style="stroke:#181818;stroke-width:1.0;" x1="421" x2="421" y1="192.9609" y2="205.9609"/><line style="stroke:#181818;stroke-width:1.0;" x1="380" x2="421" y1="205.9609" y2="205.9609"/><polygon fill="#181818" points="390,201.9609,380,205.9609,390,209.9609,386,205.9609" style="stroke:#181818;stroke-width:1.0;"/><text fill="#000000" font-family="sans-serif" font-size="13" lengthAdjust="spacing" textLength="102" x="386" y="187.895">getUserByEmail</text><polygon fill="#181818" points="579.5,236.0938,589.5,240.0938,579.5,244.0938,583.5,240.0938" style="stroke:#181818;stroke-width:1.0;"/><line style="stroke:#181818;stroke-width:1.0;" x1="379" x2="585.5" y1="240.0938" y2="240.0938"/><text fill="#000000" font-family="sans-serif" font-size="13" lengthAdjust="spacing" textLength="74" x="386" y="235.0278">findByEmail</text><polygon fill="#181818" points="390,250.0938,380,254.0938,390,258.0938,386,254.0938" style="stroke:#181818;stroke-width:1.0;"/><line style="stroke:#181818;stroke-width:1.0;stroke-dasharray:2.0,2.0;" x1="384" x2="595.5" y1="254.0938" y2="254.0938"/><line style="stroke:#181818;stroke-width:1.0;stroke-dasharray:2.0,2.0;" x1="379" x2="421" y1="273.0938" y2="273.0938"/><line style="stroke:#181818;stroke-width:1.0;stroke-dasharray:2.0,2.0;" x1="421" x2="421" y1="273.0938" y2="286.0938"/><line style="stroke:#181818;stroke-width:1.0;stroke-dasharray:2.0,2.0;" x1="374" x2="421" y1="286.0938" y2="286.0938"/><polygon fill="#181818" points="384,282.0938,374,286.0938,384,290.0938,380,286.0938" style="stroke:#181818;stroke-width:1.0;"/><polygon fill="#181818" points="478,306.2266,488,310.2266,478,314.2266,482,310.2266" style="stroke:#181818;stroke-width:1.0;"/><line style="stroke:#181818;stroke-width:1.0;" x1="374" x2="484" y1="310.2266" y2="310.2266"/><text fill="#000000" font-family="sans-serif" font-size="13" lengthAdjust="spacing" textLength="96" x="381" y="305.1606">createJwtToken</text><polygon fill="#181818" points="385,320.2266,375,324.2266,385,328.2266,381,324.2266" style="stroke:#181818;stroke-width:1.0;"/><line style="stroke:#181818;stroke-width:1.0;stroke-dasharray:2.0,2.0;" x1="379" x2="494" y1="324.2266" y2="324.2266"/><polygon fill="#181818" points="265,334.2266,255,338.2266,265,342.2266,261,338.2266" style="stroke:#181818;stroke-width:1.0;"/><line style="stroke:#181818;stroke-width:1.0;stroke-dasharray:2.0,2.0;" x1="259" x2="368" y1="338.2266" y2="338.2266"/><polygon fill="#181818" points="153,348.2266,143,352.2266,153,356.2266,149,352.2266" style="stroke:#181818;stroke-width:1.0;"/><line style="stroke:#181818;stroke-width:1.0;stroke-dasharray:2.0,2.0;" x1="147" x2="248" y1="352.2266" y2="352.2266"/><polygon fill="#181818" points="41,362.2266,31,366.2266,41,370.2266,37,366.2266" style="stroke:#181818;stroke-width:1.0;"/><line style="stroke:#181818;stroke-width:1.0;stroke-dasharray:2.0,2.0;" x1="35" x2="136" y1="366.2266" y2="366.2266"/><!--MD5=[03621bfaefb74f38c35d5b4905618cbb]
@startuml
participant Actor
Actor -> Controller : refreshToken
activate Controller
Controller -> UserService : refreshToken
activate UserService
UserService -> UserServiceImpl : refreshToken
activate UserServiceImpl
UserServiceImpl -> Utilities : decodeToken
activate Utilities
Utilities - -> UserServiceImpl
deactivate Utilities
UserServiceImpl -> UserServiceImpl : getUserByEmail
activate UserServiceImpl
UserServiceImpl -> UserRepository : findByEmail
activate UserRepository
UserRepository - -> UserServiceImpl
deactivate UserRepository
UserServiceImpl - -> UserServiceImpl
deactivate UserServiceImpl
UserServiceImpl -> Utilities : createJwtToken
activate Utilities
Utilities - -> UserServiceImpl
deactivate Utilities
UserServiceImpl - -> UserService
deactivate UserServiceImpl
UserService - -> Controller
deactivate UserService
return
@enduml

PlantUML version 1.2022.7(Mon Aug 22 17:01:30 UTC 2022)
(GPL source distribution)
Java Runtime: OpenJDK Runtime Environment
JVM: OpenJDK 64-Bit Server VM
Default Encoding: UTF-8
Language: en
Country: null
--></g></svg>