<?xml version="1.0" encoding="UTF-8" standalone="no"?><svg xmlns="http://www.w3.org/2000/svg" xmlns:xlink="http://www.w3.org/1999/xlink" contentStyleType="text/css" height="535px" preserveAspectRatio="none" style="width:996px;height:535px;background:#FFFFFF;" version="1.1" viewBox="0 0 996 535" width="996px" zoomAndPan="magnify"><defs/><g><rect fill="#FFFFFF" height="414.3594" style="stroke:#181818;stroke-width:1.0;" width="10" x="123" y="67.4297"/><rect fill="#FFFFFF" height="57.1328" style="stroke:#181818;stroke-width:1.0;" width="10" x="229" y="96.5625"/><rect fill="#FFFFFF" height="14" style="stroke:#181818;stroke-width:1.0;" width="10" x="362" y="125.6953"/><rect fill="#FFFFFF" height="155.5625" style="stroke:#181818;stroke-width:1.0;" width="10" x="488.5" y="182.8281"/><rect fill="#FFFFFF" height="100.2656" style="stroke:#181818;stroke-width:1.0;" width="10" x="488.5" y="367.5234"/><rect fill="#FFFFFF" height="112.4297" style="stroke:#181818;stroke-width:1.0;" width="10" x="626.5" y="211.9609"/><rect fill="#FFFFFF" height="57.1328" style="stroke:#181818;stroke-width:1.0;" width="10" x="626.5" y="396.6563"/><rect fill="#FFFFFF" height="14" style="stroke:#181818;stroke-width:1.0;" width="10" x="758.5" y="241.0938"/><rect fill="#FFFFFF" height="16.1641" style="stroke:#181818;stroke-width:1.0;" width="10" x="870.5" y="294.2266"/><rect fill="#FFFFFF" height="14" style="stroke:#181818;stroke-width:1.0;" width="10" x="954" y="425.7891"/><line style="stroke:#181818;stroke-width:0.5;stroke-dasharray:5.0,5.0;" x1="30" x2="30" y1="36.2969" y2="499.7891"/><line style="stroke:#181818;stroke-width:0.5;stroke-dasharray:5.0,5.0;" x1="127.5" x2="127.5" y1="36.2969" y2="499.7891"/><line style="stroke:#181818;stroke-width:0.5;stroke-dasharray:5.0,5.0;" x1="233.5" x2="233.5" y1="36.2969" y2="499.7891"/><line style="stroke:#181818;stroke-width:0.5;stroke-dasharray:5.0,5.0;" x1="366.5" x2="366.5" y1="36.2969" y2="499.7891"/><line style="stroke:#181818;stroke-width:0.5;stroke-dasharray:5.0,5.0;" x1="493.5" x2="493.5" y1="36.2969" y2="499.7891"/><line style="stroke:#181818;stroke-width:0.5;stroke-dasharray:5.0,5.0;" x1="631.5" x2="631.5" y1="36.2969" y2="499.7891"/><line style="stroke:#181818;stroke-width:0.5;stroke-dasharray:5.0,5.0;" x1="763.5" x2="763.5" y1="36.2969" y2="499.7891"/><line style="stroke:#181818;stroke-width:0.5;stroke-dasharray:5.0,5.0;" x1="875.5" x2="875.5" y1="293.7422" y2="499.7891"/><line style="stroke:#181818;stroke-width:0.5;stroke-dasharray:5.0,5.0;" x1="958.5" x2="958.5" y1="36.2969" y2="499.7891"/><rect fill="#E2E2F0" height="30.2969" rx="2.5" ry="2.5" style="stroke:#181818;stroke-width:0.5;" width="50" x="5" y="5"/><text fill="#000000" font-family="sans-serif" font-size="14" lengthAdjust="spacing" textLength="36" x="12" y="24.9951">Actor</text><rect fill="#E2E2F0" height="30.2969" rx="2.5" ry="2.5" style="stroke:#181818;stroke-width:0.5;" width="50" x="5" y="498.7891"/><text fill="#000000" font-family="sans-serif" font-size="14" lengthAdjust="spacing" textLength="36" x="12" y="518.7842">Actor</text><rect fill="#E2E2F0" height="30.2969" rx="2.5" ry="2.5" style="stroke:#181818;stroke-width:0.5;" width="81" x="87.5" y="5"/><text fill="#000000" font-family="sans-serif" font-size="14" lengthAdjust="spacing" textLength="67" x="94.5" y="24.9951">Controller</text><rect fill="#E2E2F0" height="30.2969" rx="2.5" ry="2.5" style="stroke:#181818;stroke-width:0.5;" width="81" x="87.5" y="498.7891"/><text fill="#000000" font-family="sans-serif" font-size="14" lengthAdjust="spacing" textLength="67" x="94.5" y="518.7842">Controller</text><rect fill="#E2E2F0" height="30.2969" rx="2.5" ry="2.5" style="stroke:#181818;stroke-width:0.5;" width="109" x="179.5" y="5"/><text fill="#000000" font-family="sans-serif" font-size="14" lengthAdjust="spacing" textLength="95" x="186.5" y="24.9951">PhoneService</text><rect fill="#E2E2F0" height="30.2969" rx="2.5" ry="2.5" style="stroke:#181818;stroke-width:0.5;" width="109" x="179.5" y="498.7891"/><text fill="#000000" font-family="sans-serif" font-size="14" lengthAdjust="spacing" textLength="95" x="186.5" y="518.7842">PhoneService</text><rect fill="#E2E2F0" height="30.2969" rx="2.5" ry="2.5" style="stroke:#181818;stroke-width:0.5;" width="137" x="298.5" y="5"/><text fill="#000000" font-family="sans-serif" font-size="14" lengthAdjust="spacing" textLength="123" x="305.5" y="24.9951">PhoneServiceImpl</text><rect fill="#E2E2F0" height="30.2969" rx="2.5" ry="2.5" style="stroke:#181818;stroke-width:0.5;" width="137" x="298.5" y="498.7891"/><text fill="#000000" font-family="sans-serif" font-size="14" lengthAdjust="spacing" textLength="123" x="305.5" y="518.7842">PhoneServiceImpl</text><rect fill="#E2E2F0" height="30.2969" rx="2.5" ry="2.5" style="stroke:#181818;stroke-width:0.5;" width="96" x="445.5" y="5"/><text fill="#000000" font-family="sans-serif" font-size="14" lengthAdjust="spacing" textLength="82" x="452.5" y="24.9951">UserService</text><rect fill="#E2E2F0" height="30.2969" rx="2.5" ry="2.5" style="stroke:#181818;stroke-width:0.5;" width="96" x="445.5" y="498.7891"/><text fill="#000000" font-family="sans-serif" font-size="14" lengthAdjust="spacing" textLength="82" x="452.5" y="518.7842">UserService</text><rect fill="#E2E2F0" height="30.2969" rx="2.5" ry="2.5" style="stroke:#181818;stroke-width:0.5;" width="124" x="569.5" y="5"/><text fill="#000000" font-family="sans-serif" font-size="14" lengthAdjust="spacing" textLength="110" x="576.5" y="24.9951">UserServiceImpl</text><rect fill="#E2E2F0" height="30.2969" rx="2.5" ry="2.5" style="stroke:#181818;stroke-width:0.5;" width="124" x="569.5" y="498.7891"/><text fill="#000000" font-family="sans-serif" font-size="14" lengthAdjust="spacing" textLength="110" x="576.5" y="518.7842">UserServiceImpl</text><rect fill="#E2E2F0" height="30.2969" rx="2.5" ry="2.5" style="stroke:#181818;stroke-width:0.5;" width="120" x="703.5" y="5"/><text fill="#000000" font-family="sans-serif" font-size="14" lengthAdjust="spacing" textLength="106" x="710.5" y="24.9951">UserRepository</text><rect fill="#E2E2F0" height="30.2969" rx="2.5" ry="2.5" style="stroke:#181818;stroke-width:0.5;" width="120" x="703.5" y="498.7891"/><text fill="#000000" font-family="sans-serif" font-size="14" lengthAdjust="spacing" textLength="106" x="710.5" y="518.7842">UserRepository</text><rect fill="#E2E2F0" height="30.2969" rx="2.5" ry="2.5" style="stroke:#181818;stroke-width:0.5;" width="84" x="833.5" y="498.7891"/><text fill="#000000" font-family="sans-serif" font-size="14" lengthAdjust="spacing" textLength="70" x="840.5" y="518.7842">UserEntity</text><rect fill="#E2E2F0" height="30.2969" rx="2.5" ry="2.5" style="stroke:#181818;stroke-width:0.5;" width="63" x="927.5" y="5"/><text fill="#000000" font-family="sans-serif" font-size="14" lengthAdjust="spacing" textLength="49" x="934.5" y="24.9951">Utilities</text><rect fill="#E2E2F0" height="30.2969" rx="2.5" ry="2.5" style="stroke:#181818;stroke-width:0.5;" width="63" x="927.5" y="498.7891"/><text fill="#000000" font-family="sans-serif" font-size="14" lengthAdjust="spacing" textLength="49" x="934.5" y="518.7842">Utilities</text><rect fill="#FFFFFF" height="414.3594" style="stroke:#181818;stroke-width:1.0;" width="10" x="123" y="67.4297"/><rect fill="#FFFFFF" height="57.1328" style="stroke:#181818;stroke-width:1.0;" width="10" x="229" y="96.5625"/><rect fill="#FFFFFF" height="14" style="stroke:#181818;stroke-width:1.0;" width="10" x="362" y="125.6953"/><rect fill="#FFFFFF" height="155.5625" style="stroke:#181818;stroke-width:1.0;" width="10" x="488.5" y="182.8281"/><rect fill="#FFFFFF" height="100.2656" style="stroke:#181818;stroke-width:1.0;" width="10" x="488.5" y="367.5234"/><rect fill="#FFFFFF" height="112.4297" style="stroke:#181818;stroke-width:1.0;" width="10" x="626.5" y="211.9609"/><rect fill="#FFFFFF" height="57.1328" style="stroke:#181818;stroke-width:1.0;" width="10" x="626.5" y="396.6563"/><rect fill="#FFFFFF" height="14" style="stroke:#181818;stroke-width:1.0;" width="10" x="758.5" y="241.0938"/><rect fill="#FFFFFF" height="16.1641" style="stroke:#181818;stroke-width:1.0;" width="10" x="870.5" y="294.2266"/><rect fill="#FFFFFF" height="14" style="stroke:#181818;stroke-width:1.0;" width="10" x="954" y="425.7891"/><polygon fill="#181818" points="111,63.4297,121,67.4297,111,71.4297,115,67.4297" style="stroke:#181818;stroke-width:1.0;"/><line style="stroke:#181818;stroke-width:1.0;" x1="30" x2="117" y1="67.4297" y2="67.4297"/><text fill="#000000" font-family="sans-serif" font-size="13" lengthAdjust="spacing" textLength="74" x="37" y="62.3638">signUpUser</text><polygon fill="#181818" points="217,92.5625,227,96.5625,217,100.5625,221,96.5625" style="stroke:#181818;stroke-width:1.0;"/><line style="stroke:#181818;stroke-width:1.0;" x1="133" x2="223" y1="96.5625" y2="96.5625"/><text fill="#000000" font-family="sans-serif" font-size="13" lengthAdjust="spacing" textLength="77" x="140" y="91.4966">savePhones</text><polygon fill="#181818" points="350,121.6953,360,125.6953,350,129.6953,354,125.6953" style="stroke:#181818;stroke-width:1.0;"/><line style="stroke:#181818;stroke-width:1.0;" x1="239" x2="356" y1="125.6953" y2="125.6953"/><text fill="#000000" font-family="sans-serif" font-size="13" lengthAdjust="spacing" textLength="77" x="246" y="120.6294">savePhones</text><polygon fill="#181818" points="250,135.6953,240,139.6953,250,143.6953,246,139.6953" style="stroke:#181818;stroke-width:1.0;"/><line style="stroke:#181818;stroke-width:1.0;stroke-dasharray:2.0,2.0;" x1="244" x2="366" y1="139.6953" y2="139.6953"/><polygon fill="#181818" points="144,149.6953,134,153.6953,144,157.6953,140,153.6953" style="stroke:#181818;stroke-width:1.0;"/><line style="stroke:#181818;stroke-width:1.0;stroke-dasharray:2.0,2.0;" x1="138" x2="233" y1="153.6953" y2="153.6953"/><polygon fill="#181818" points="476.5,178.8281,486.5,182.8281,476.5,186.8281,480.5,182.8281" style="stroke:#181818;stroke-width:1.0;"/><line style="stroke:#181818;stroke-width:1.0;" x1="133" x2="482.5" y1="182.8281" y2="182.8281"/><text fill="#000000" font-family="sans-serif" font-size="13" lengthAdjust="spacing" textLength="106" x="140" y="177.7622">initAndSaveUser</text><polygon fill="#181818" points="614.5,207.9609,624.5,211.9609,614.5,215.9609,618.5,211.9609" style="stroke:#181818;stroke-width:1.0;"/><line style="stroke:#181818;stroke-width:1.0;" x1="498.5" x2="620.5" y1="211.9609" y2="211.9609"/><text fill="#000000" font-family="sans-serif" font-size="13" lengthAdjust="spacing" textLength="106" x="505.5" y="206.895">initAndSaveUser</text><polygon fill="#181818" points="746.5,237.0938,756.5,241.0938,746.5,245.0938,750.5,241.0938" style="stroke:#181818;stroke-width:1.0;"/><line style="stroke:#181818;stroke-width:1.0;" x1="636.5" x2="752.5" y1="241.0938" y2="241.0938"/><text fill="#000000" font-family="sans-serif" font-size="13" lengthAdjust="spacing" textLength="74" x="643.5" y="236.0278">findByEmail</text><polygon fill="#181818" points="647.5,251.0938,637.5,255.0938,647.5,259.0938,643.5,255.0938" style="stroke:#181818;stroke-width:1.0;"/><line style="stroke:#181818;stroke-width:1.0;stroke-dasharray:2.0,2.0;" x1="641.5" x2="762.5" y1="255.0938" y2="255.0938"/><polygon fill="#181818" points="821.5,280.2266,831.5,284.2266,821.5,288.2266,825.5,284.2266" style="stroke:#181818;stroke-width:1.0;"/><line style="stroke:#181818;stroke-width:1.0;" x1="636.5" x2="827.5" y1="284.2266" y2="284.2266"/><text fill="#000000" font-family="sans-serif" font-size="13" lengthAdjust="spacing" textLength="25" x="643.5" y="279.1606">new</text><rect fill="#E2E2F0" height="30.2969" rx="2.5" ry="2.5" style="stroke:#181818;stroke-width:0.5;" width="84" x="833.5" y="263.0938"/><text fill="#000000" font-family="sans-serif" font-size="14" lengthAdjust="spacing" textLength="70" x="840.5" y="283.0889">UserEntity</text><polygon fill="#181818" points="647.5,306.3906,637.5,310.3906,647.5,314.3906,643.5,310.3906" style="stroke:#181818;stroke-width:1.0;"/><line style="stroke:#181818;stroke-width:1.0;stroke-dasharray:2.0,2.0;" x1="641.5" x2="874.5" y1="310.3906" y2="310.3906"/><polygon fill="#181818" points="509.5,320.3906,499.5,324.3906,509.5,328.3906,505.5,324.3906" style="stroke:#181818;stroke-width:1.0;"/><line style="stroke:#181818;stroke-width:1.0;stroke-dasharray:2.0,2.0;" x1="503.5" x2="630.5" y1="324.3906" y2="324.3906"/><polygon fill="#181818" points="144,334.3906,134,338.3906,144,342.3906,140,338.3906" style="stroke:#181818;stroke-width:1.0;"/><line style="stroke:#181818;stroke-width:1.0;stroke-dasharray:2.0,2.0;" x1="138" x2="492.5" y1="338.3906" y2="338.3906"/><polygon fill="#181818" points="476.5,363.5234,486.5,367.5234,476.5,371.5234,480.5,367.5234" style="stroke:#181818;stroke-width:1.0;"/><line style="stroke:#181818;stroke-width:1.0;" x1="133" x2="482.5" y1="367.5234" y2="367.5234"/><text fill="#000000" font-family="sans-serif" font-size="13" lengthAdjust="spacing" textLength="109" x="140" y="362.4575">getTokenForUser</text><polygon fill="#181818" points="614.5,392.6563,624.5,396.6563,614.5,400.6563,618.5,396.6563" style="stroke:#181818;stroke-width:1.0;"/><line style="stroke:#181818;stroke-width:1.0;" x1="498.5" x2="620.5" y1="396.6563" y2="396.6563"/><text fill="#000000" font-family="sans-serif" font-size="13" lengthAdjust="spacing" textLength="109" x="505.5" y="391.5903">getTokenForUser</text><polygon fill="#181818" points="942,421.7891,952,425.7891,942,429.7891,946,425.7891" style="stroke:#181818;stroke-width:1.0;"/><line style="stroke:#181818;stroke-width:1.0;" x1="636.5" x2="948" y1="425.7891" y2="425.7891"/><text fill="#000000" font-family="sans-serif" font-size="13" lengthAdjust="spacing" textLength="96" x="643.5" y="420.7231">createJwtToken</text><polygon fill="#181818" points="647.5,435.7891,637.5,439.7891,647.5,443.7891,643.5,439.7891" style="stroke:#181818;stroke-width:1.0;"/><line style="stroke:#181818;stroke-width:1.0;stroke-dasharray:2.0,2.0;" x1="641.5" x2="958" y1="439.7891" y2="439.7891"/><polygon fill="#181818" points="509.5,449.7891,499.5,453.7891,509.5,457.7891,505.5,453.7891" style="stroke:#181818;stroke-width:1.0;"/><line style="stroke:#181818;stroke-width:1.0;stroke-dasharray:2.0,2.0;" x1="503.5" x2="630.5" y1="453.7891" y2="453.7891"/><polygon fill="#181818" points="144,463.7891,134,467.7891,144,471.7891,140,467.7891" style="stroke:#181818;stroke-width:1.0;"/><line style="stroke:#181818;stroke-width:1.0;stroke-dasharray:2.0,2.0;" x1="138" x2="492.5" y1="467.7891" y2="467.7891"/><polygon fill="#181818" points="41,477.7891,31,481.7891,41,485.7891,37,481.7891" style="stroke:#181818;stroke-width:1.0;"/><line style="stroke:#181818;stroke-width:1.0;stroke-dasharray:2.0,2.0;" x1="35" x2="127" y1="481.7891" y2="481.7891"/><!--MD5=[61771239314f336ef0e150bdc28635dd]
@startuml
participant Actor
Actor -> Controller : signUpUser
activate Controller
Controller -> PhoneService : savePhones
activate PhoneService
PhoneService -> PhoneServiceImpl : savePhones
activate PhoneServiceImpl
PhoneServiceImpl - -> PhoneService
deactivate PhoneServiceImpl
PhoneService - -> Controller
deactivate PhoneService
Controller -> UserService : initAndSaveUser
activate UserService
UserService -> UserServiceImpl : initAndSaveUser
activate UserServiceImpl
UserServiceImpl -> UserRepository : findByEmail
activate UserRepository
UserRepository - -> UserServiceImpl
deactivate UserRepository
create UserEntity
UserServiceImpl -> UserEntity : new
activate UserEntity
UserEntity - -> UserServiceImpl
deactivate UserEntity
UserServiceImpl - -> UserService
deactivate UserServiceImpl
UserService - -> Controller
deactivate UserService
Controller -> UserService : getTokenForUser
activate UserService
UserService -> UserServiceImpl : getTokenForUser
activate UserServiceImpl
UserServiceImpl -> Utilities : createJwtToken
activate Utilities
Utilities - -> UserServiceImpl
deactivate Utilities
UserServiceImpl - -> UserService
deactivate UserServiceImpl
UserService - -> Controller
deactivate UserService
return
@enduml

PlantUML version 1.2022.7(Mon Aug 22 17:01:30 UTC 2022)
(GPL source distribution)
Java Runtime: OpenJDK Runtime Environment
JVM: OpenJDK 64-Bit Server VM
Default Encoding: UTF-8
Language: en
Country: null
--></g></svg>